<?xml version="1.0" encoding="UTF-8" standalone="no"?>
<!-- Created with Inkscape (http://www.inkscape.org/) -->

<svg
   width="64px"
   height="64px"
   id="svg3140"
   sodipodi:version="0.32"
   inkscape:version="1.1.2 (0a00cf5339, 2022-02-04)"
   sodipodi:docname="freecad-importer.svg"
   inkscape:output_extension="org.inkscape.output.svg.inkscape"
   version="1.1"
   inkscape:export-filename="/home/prrvchr/github/FreeCAD-Importer/img/freecad-importer.png"
   inkscape:export-xdpi="96"
   inkscape:export-ydpi="96"
   xmlns:inkscape="http://www.inkscape.org/namespaces/inkscape"
   xmlns:sodipodi="http://sodipodi.sourceforge.net/DTD/sodipodi-0.dtd"
   xmlns="http://www.w3.org/2000/svg"
   xmlns:svg="http://www.w3.org/2000/svg"
   xmlns:rdf="http://www.w3.org/1999/02/22-rdf-syntax-ns#"
   xmlns:cc="http://creativecommons.org/ns#"
   xmlns:dc="http://purl.org/dc/elements/1.1/">
  <defs
     id="defs3142">
    <linearGradient
       id="linearGradient3864">
      <stop
         id="stop3866"
         offset="0"
         style="stop-color:#71b2f8;stop-opacity:1;" />
      <stop
         id="stop3868"
         offset="1"
         style="stop-color:#002795;stop-opacity:1;" />
    </linearGradient>
    <linearGradient
       id="linearGradient3682">
      <stop
         style="stop-color:#ff6d0f;stop-opacity:1;"
         offset="0"
         id="stop3684" />
      <stop
         style="stop-color:#ff1000;stop-opacity:1;"
         offset="1"
         id="stop3686" />
    </linearGradient>
    <inkscape:perspective
       sodipodi:type="inkscape:persp3d"
       inkscape:vp_x="0 : 32 : 1"
       inkscape:vp_y="0 : 1000 : 0"
       inkscape:vp_z="64 : 32 : 1"
       inkscape:persp3d-origin="32 : 21.333333 : 1"
       id="perspective3148" />
  </defs>
  <sodipodi:namedview
     id="base"
     pagecolor="#ffffff"
     bordercolor="#666666"
     borderopacity="1.0"
     inkscape:pageopacity="0.0"
     inkscape:pageshadow="2"
     inkscape:zoom="5.5"
     inkscape:cx="9.6363636"
     inkscape:cy="31.909091"
     inkscape:current-layer="layer1"
     showgrid="true"
     inkscape:document-units="px"
     inkscape:grid-bbox="true"
     inkscape:window-width="1189"
     inkscape:window-height="684"
     inkscape:window-x="0"
     inkscape:window-y="59"
     inkscape:pagecheckerboard="0"
     inkscape:window-maximized="0" />
  <metadata
     id="metadata3145">
    <rdf:RDF>
      <cc:Work
         rdf:about="">
        <dc:format>image/svg+xml</dc:format>
        <dc:type
           rdf:resource="http://purl.org/dc/dcmitype/StillImage" />
      </cc:Work>
    </rdf:RDF>
  </metadata>
  <g
     id="layer1"
     inkscape:label="Layer 1"
     inkscape:groupmode="layer">
    <g
       id="g6370">
      <path
         sodipodi:nodetypes="ccccccccccc"
         id="rect3663"
         d="M 3.9724314,5.9888049 V 53.199358 H 14.499109 v -18.47485 h 7.443105 v -7.28361 H 14.499109 V 19.57938 H 32.834786 V 6.0153874 Z"
         style="display:inline;overflow:visible;visibility:visible;fill:black;fill-opacity:1;fill-rule:evenodd;stroke:none;stroke-width:1.62472;stroke-linecap:butt;stroke-linejoin:miter;stroke-miterlimit:4;stroke-dasharray:none;stroke-dashoffset:0;stroke-opacity:1;marker:none;marker-start:none;marker-mid:none;marker-end:none;enable-background:accumulate" />
      <path
         id="path3659"
         d="m 50.830573,20.05908 -6.123132,3.513051 -2.703923,-0.938334 -2.579772,-6.59308 -4.058117,0.213255 -1.851011,6.817657 -2.5906,1.240583 -6.46139,-2.826522 -2.729119,3.032693 3.513061,6.12313 -0.960016,2.696 -6.593086,2.579772 0.23493,4.06603 6.817664,1.851012 1.240582,2.590593 -2.848191,6.453482 3.032687,2.729116 6.123123,-3.513053 2.717687,0.967929 2.558097,6.585165 4.087702,-0.227021 1.829337,-6.825569 2.590601,-1.240585 6.475144,2.856117 2.729119,-3.032693 -3.513053,-6.123128 0.946245,-2.725596 6.585166,-2.558097 -0.205328,-4.079789 -6.825574,-1.829333 -1.240591,-2.590593 2.834436,-6.483077 z m -9.170586,10.041182 1.256949,0.729303 1.089007,0.987368 0.871855,1.178327 0.627169,1.310095 0.368744,1.412269 0.06108,1.447333 -0.209045,1.446958 -0.477073,1.37364 -0.758899,1.270716 -0.95777,1.075241 -1.178333,0.871849 -1.310097,0.62717 -1.412259,0.368738 -1.455251,0.08278 -1.446965,-0.20903 -1.373631,-0.477084 -1.270713,-0.758898 -1.067341,-0.979454 -0.879749,-1.156646 -0.627186,-1.310093 -0.360816,-1.433948 -0.08277,-1.45525 0.209028,-1.446961 0.47709,-1.373636 0.75098,-1.249039 0.965698,-1.096918 1.178325,-0.871851 1.310088,-0.627172 1.433942,-0.36082 1.447339,-0.06109 1.446957,0.209029 z"
         style="display:inline;overflow:visible;visibility:visible;fill:black;fill-opacity:1;fill-rule:evenodd;stroke:none;stroke-width:1.625;stroke-linecap:butt;stroke-linejoin:miter;stroke-miterlimit:4;stroke-dasharray:none;stroke-dashoffset:0;stroke-opacity:1;marker:none;marker-start:none;marker-mid:none;marker-end:none;enable-background:accumulate" />
    </g>
  </g>
</svg>
